# xmcd
#
# Track frame offsets:
#	150
#	14507
#	27311
#	36871
#	46902
#	63440
#	75087
#	87259
#	100186
#	111973
#	127038
#	139481
#	150112
#	164949
#	177478
#	190854
#	205023
#	218949
#	232493
#	254250
#	275336
#
# Disc length: 3876 seconds
#
# Revision: 2
# Processed by: cddbd v1.5.1PL2 Copyright (c) Steve Scherf et al.
# Submitted via: audiograbber 1.83.01
#
DISCID=2d0f2215
DTITLE=Merle Haggard - 21 Years Of Number 1 Hits
DYEAR=2002
DGENRE=Traditional Country
TTITLE0=I'm A Lonesome Fugitive
TTITLE1=Sing Me Back Home
TTITLE2=The Legend Of Bonnie And Clyde
TTITLE3=Mama Tried
TTITLE4=Hungry Eyes
TTITLE5=Workin' Man Blues
TTITLE6=Okie From Muskogee
TTITLE7=The Fightin' Side Of Me
TTITLE8=Carolyn
TTITLE9=It's Not Love (But It's Not Bad)
TTITLE10=If We Make It Through December
TTITLE11=Old Man From The Mountain
TTITLE12=It's All In The Movies
TTITLE13=The Roots Of My Raising
TTITLE14=Cherokee Maiden
TTITLE15=I Think I'll Just Stay Here And Drink
TTITLE16=My Favorite Memory
TTITLE17=Big City
TTITLE18=Going Where The Lonely Go
TTITLE19=Someday When Things Are Good
TTITLE20=Twinkle, Twinkle, Lucky Star
EXTD=
EXTT0=
EXTT1=
EXTT2=
EXTT3=
EXTT4=
EXTT5=
EXTT6=
EXTT7=
EXTT8=
EXTT9=
EXTT10=
EXTT11=
EXTT12=
EXTT13=
EXTT14=
EXTT15=
EXTT16=
EXTT17=
EXTT18=
EXTT19=
EXTT20=
PLAYORDER=
